<?xml version="1.0" encoding="utf-8"?>
<!-- Generator: Adobe Illustrator 22.0.1, SVG Export Plug-In . SVG Version: 6.00 Build 0)  -->
<svg version="1.1" id="Calque_1" xmlns="http://www.w3.org/2000/svg" xmlns:xlink="http://www.w3.org/1999/xlink" x="0px" y="0px"
	 viewBox="0 0 432 432" style="enable-background:new 0 0 432 432;" xml:space="preserve">
<style type="text/css">
	.st0{fill:#957452;}
	.st1{fill:#88573C;}
	.st2{fill:#D6C49A;}
	.st3{fill:#E52627;}
	.st4{fill:#CDCCCC;}
	.st5{fill:#264395;}
	.st6{fill:#1E274A;}
	.st7{fill:#EC6625;}
	.st8{fill:#020203;}
	.st9{fill:#E52521;}
	.st10{fill:#808181;}
	.st11{fill:#FFE324;}
	.st12{fill:#3F4244;}
	.st13{fill:#009F4A;}
	.st14{fill:#343434;}
	.st15{fill:#78170E;}
	.st16{fill:#F0E9D5;}
	.st17{fill:#272531;}
	.st18{fill:#222B56;}
	.st19{fill:#9BD2CC;}
	.st20{fill:#83B143;}
	.st21{fill:#1B1B1B;}
	.st22{fill:#FFFFFF;}
	.st23{fill:#DDD6C3;}
	.st24{fill:#997F64;}
	.st25{fill:#77684B;}
	.st26{fill:#A89877;}
	.st27{fill:#B4B4B4;}
	.st28{fill:#DDCEBB;}
	.st29{fill:#9A2A1A;}
	.st30{fill:#5E1C0C;}
	.st31{fill:#F1CA43;}
	.st32{fill:#A57B46;}
	.st33{fill:#F18538;}
	.st34{fill:#F2AC64;}
	.st35{fill:#FAB42D;}
	.st36{fill:#46494E;}
	.st37{fill:#CF875E;}
	.st38{fill:#E7E6E6;}
	.st39{fill:#1A181D;}
	.st40{fill:#637644;}
	.st41{fill:#9F1E29;}
	.st42{fill:#F9B03D;}
	.st43{fill:#0D71B9;}
	.st44{fill:#E52629;}
	.st45{fill:#676767;}
	.st46{fill:#30358C;}
	.st47{fill:#9A9999;}
	.st48{fill:#3F4798;}
	.st49{fill:#2DABE3;}
	.st50{fill:#C1292E;}
	.st51{fill:#F2F2F2;}
	.st52{fill:#AA7C4C;}
	.st53{fill:#D6A573;}
	.st54{fill:#29ACE1;}
	.st55{fill:#88C05E;}
	.st56{fill:#F39323;}
	.st57{fill:#EB5B28;}
	.st58{fill:#B85965;}
	.st59{fill:#A67D52;}
	.st60{fill:#8C633A;}
	.st61{fill:#009245;}
	.st62{fill:#066938;}
	.st63{fill:#7D252D;}
	.st64{fill:#95D3E3;}
	.st65{fill:#603914;}
	.st66{fill:#EFC9AF;}
	.st67{fill:#D987B8;}
	.st68{fill:#8FC14D;}
	.st69{fill:#C69C6C;}
	.st70{fill:#2BADE1;}
	.st71{fill:#A4C958;}
	.st72{fill:#754D24;}
	.st73{fill:#35AE73;}
	.st74{fill:#E0B99E;}
	.st75{fill:#BDCCD4;}
	.st76{fill:#0C0D0D;}
	.st77{fill:#F4E152;}
	.st78{fill:#1E1911;}
	.st79{fill:#A1BD4F;}
	.st80{fill:#CBE6DC;}
	.st81{fill:#B5DCCE;}
	.st82{fill:#1F1D1B;}
	.st83{fill:#746458;}
	.st84{fill:#C7B29A;}
	.st85{fill:#998675;}
	.st86{fill:#428540;}
	.st87{fill:#E3E5E3;}
	.st88{fill:#161617;}
	.st89{fill:#1E1F1E;}
	.st90{fill:#474847;}
	.st91{fill:#191A19;}
	.st92{fill:#4B2C15;}
	.st93{fill:#92552A;}
	.st94{fill:#7EA847;}
	.st95{fill:#D59E2B;}
	.st96{fill:#807E79;}
	.st97{fill:#E5B744;}
	.st98{fill:#8EC045;}
	.st99{fill:#3B569A;}
	.st100{fill:#9580ff;}
	.st101{fill:#8FC9CC;}
	.st102{fill:#9ED1CA;}
	.st103{fill:#81AAA9;}
	.st104{fill:#E1783D;}
	.st105{fill:#64328A;}
	.st106{fill:#DEDEA5;}
	.st107{fill:#754997;}
	.st108{fill:#EE6F43;}
	.st109{fill:#A6CB67;}
	.st110{fill:#8FB7C0;}
	.st111{fill:#E2E1DF;}
	.st112{fill:#2C3E70;}
	.st113{fill:#D9BF96;}
	.st114{fill:#9C6941;}
	.st115{fill:#61605E;}
	.st116{fill:#9C9A99;}
	.st117{fill:#245F3D;}
	.st118{fill:#191713;}
	.st119{fill:#C39A62;}
	.st120{fill:#A17C4F;}
	.st121{fill:#F39200;}
	.st122{fill:#432918;}
	.st123{fill:#B17F4A;}
	.st124{fill:#FFCE1E;}
	.st125{fill:#BE1622;}
	.st126{fill:#3AAA35;}
	.st127{fill:#911825;}
	.st128{fill:#009FE3;}
	.st129{fill:#50fa7b;}
	.st130{fill:#FFCC03;}
	.st131{fill:#95C11F;}
	.st132{fill:#00A19A;}
	.st133{fill:#683C11;}
	.st134{fill:#878787;}
	.st135{fill:#634E42;}
	.st136{fill:#CBBBA0;}
	.st137{fill:#7B5B41;}
	.st138{fill:#493E36;}
	.st139{fill:#78A62C;}
	.st140{fill:#2C8535;}
	.st141{fill:#F9B233;}
	.st142{fill:none;}
	.st143{fill:#CA9E67;}
	.st144{fill:#E30613;}
	.st145{fill:#C6C6C6;}
	.st146{fill:#575756;}
	.st147{fill:#7B6A58;}
	.st148{fill:#A3C5D7;}
	.st149{fill:#332C25;}
	.st150{fill:#29235C;}
	.st151{fill:#E6332A;}
	.st152{fill:#738D93;}
	.st153{fill:#C87B31;}
	.st154{fill:#5BBCA7;}
	.st155{fill:#EF786F;}
	.st156{fill:#EE8D9E;}
	.st157{fill:#A74B56;}
	.st158{fill:#E72D7B;}
	.st159{fill:#E84138;}
	.st160{fill:#3B2315;}
	.st161{fill:#8EC044;}
	.st162{fill:#A1C74B;}
	.st163{fill:#231F20;}
	.st164{fill:#F6D9A7;}
	.st165{fill:#F4A5A6;}
	.st166{fill:#6E6F70;}
	.st167{fill:#F8AF41;}
	.st168{fill:#B79C19;}
	.st169{fill:#EFD101;}
	.st170{fill:#207A97;}
	.st171{fill:#20ACE3;}
	.st172{fill:#C51618;}
	.st173{fill:#C19446;}
	.st174{fill:#9E599F;}
	.st175{fill:#CD95C2;}
	.st176{fill:#F29A26;}
	.st177{fill:#FCCE8D;}
	.st178{fill:#F39B85;}
	.st179{fill:#E52628;}
	.st180{fill:#6BB52D;}
</style>
<g>
	<g>
		<path class="st129" d="M127,264c-2.6-1.1-5.4-0.3-7.5,2.2c-4.1,5-0.6,10.5,2.1,15c1.6,2.5,3.2,5.1,2.8,6.6
			c-0.1,0.2-0.3,0.9-1.7,1.6c-1.2,0.6-2.8,0.3-4-0.7c-1.3-1.1-1.8-2.8-1.1-4.5l-3.3-1.2c-1.1,2.9-0.3,6,2.1,8.1
			c1,0.8,2.1,1.4,3.3,1.7c1.6,0.4,3.2,0.2,4.6-0.4c1.8-0.9,3-2.1,3.4-3.6c0.8-2.9-1.1-5.9-3.1-9.2c-3-4.9-4.8-8.3-2.4-11.3
			c0.6-0.8,1.9-1.9,3.4-1.3c1.2,0.5,2.4,2.2,2.1,4.2l3.4,0.5C131.6,268.5,129.9,265.2,127,264z"/>
		<path class="st129" d="M153.1,269.9l0.1-0.9l-3.3-0.6l-0.3,1.8c-1.4,8.2-3.3,19.5-7.9,22.4c-1.1,0.7-2.2,0.9-3.6,0.5
			c-2.6-0.7-4.9-5.7-0.8-25.3l0.3-1.5l-3.2-0.7l-0.2,0.8c-2.5,10.2-5.5,27.5,3,29.8c2.6,0.7,6.2,0.4,9.4-4c-0.1,2-0.1,3.7,0.1,5
			l0.1,0.9l3.3-0.5l-0.1-0.9C149.4,292,150.7,283.8,153.1,269.9z"/>
		<path class="st129" d="M156.7,269.7l-0.8,0l-0.1,0.8c-0.5,4.8-1,10-1.5,15.1c-0.4,4.6-0.8,8.9-1.2,12.5l-0.1,0.9l3.3,0.4l0.1-0.9
			c0.3-2.5,0.6-5.4,0.9-8.3c0.1,0,0.1,0,0.2,0c6.9,0.8,11.9-2.4,14.2-5.5c2-2.7,2.4-5.7,1.2-8.3
			C171.8,273.9,168.2,269.9,156.7,269.7z M169.1,282.4c-1.9,2.5-6.2,4.9-11.3,4.3c0,0-0.1,0-0.1,0c0.2-3,0.8-9.4,1.2-13.3
			c8.1,0.5,10.4,3,11.1,4.4C170.9,279.7,169.8,281.5,169.1,282.4z"/>
		<path class="st129" d="M182.2,301c1.2,0.5,2.5,0.8,3.8,0.9c3.2,0.2,6.7-0.9,10-3.3l0.7-0.5l-1.9-2.8l-0.7,0.5
			c-4.4,3.2-8,2.9-10.1,2.1c-2.4-0.9-4.3-2.8-5.3-5.1l18.9,0.6l0-0.9c0.2-10.3-3.1-18.1-8.5-19.9c-2.7-0.9-5.6-0.2-8.2,2
			c-4.4,3.7-7.1,10.8-6.2,16.5C175.4,295.6,178.2,299.3,182.2,301z M183.1,277.2c1.3-0.9,2.7-1.3,4-1.2c0.7,0,1.5,0.2,2.1,0.6
			c3.1,1.7,4.9,6.5,5,13.4l-16.3-0.5C177.5,283.2,180.4,279,183.1,277.2z"/>
		<path class="st129" d="M210.6,302.5l0.6,0.6l2.4-2.4l-0.6-0.6c-1.3-1.3-3-3-4.7-4.6c-0.9-0.8-1.7-1.6-2.4-2.3
			c5-0.7,9.4-3.4,11.4-7.3c1.5-2.8,1.4-5.7-0.1-8c-2.5-3.7-8.4-5.4-16.7-4.8l-0.8,0.1l0,0.8c-0.1,4.8,0,10.1,0.1,15.2
			c0.1,4.6,0.1,8.9,0.1,12.5l0,0.9l3.3,0l0-0.9c0-1.7,0-4,0-6.3l0-0.2c0.9,0.9,1.9,1.8,2.9,2.8C207.7,299.6,209.4,301.2,210.6,302.5
			z M203.1,290c-0.1-3-0.1-9.5-0.1-13.4c8.1-0.3,10.7,1.9,11.5,3.3c1,1.8,0.2,3.7-0.4,4.7c-1.7,2.7-5.7,5.5-10.8,5.4
			C203.2,290,203.2,290,203.1,290z"/>
		<path class="st129" d="M235.9,295.8l12.5-0.4c0.1,1.7,0.2,4.6,0.2,5.8l0,0.9l3.3-0.1l0-0.9c-0.2-4.7-0.5-9.7-0.8-14.5
			c-0.3-4.7-0.6-9.2-0.7-13.3l0-0.9l-3.4,0.1l1.1,19.6l-12.5,0.4c-0.1-1.7-0.2-3.7-0.4-5.9c-0.3-4.3-0.6-9.2-0.7-13.2l0-0.9
			l-3.3,0.1l0,0.9c0.1,3.7,0.4,8.9,0.7,13.9c0.3,5.1,0.6,10.3,0.7,14l0,0.9l3.3-0.1L235.9,295.8z"/>
		<path class="st129" d="M276,290.6c-1-10.2-5.2-17.6-10.7-18.8c-2.8-0.6-5.6,0.4-7.9,2.9c-4,4.2-5.8,11.5-4.2,17.1
			c1.1,4.3,4.4,7.7,8.5,8.9c1.3,0.4,2.6,0.5,3.9,0.5c3.2-0.2,6.5-1.7,9.5-4.5l0.6-0.6l-2.2-2.5l-0.7,0.6c-4,3.7-7.6,3.8-9.8,3.3
			c-2.5-0.6-4.6-2.2-5.8-4.5l18.9-1.6L276,290.6z M256.1,289.8c-1.1-6.1,1.3-10.7,3.7-12.8c1.2-1,2.5-1.6,3.8-1.7
			c0.7,0,1.5,0.1,2.2,0.4c3.3,1.3,5.6,5.9,6.5,12.7L256.1,289.8z"/>
		<path class="st129" d="M276.5,271.2l-0.8,0.2l0.1,0.8c0.5,4.8,1.1,10,1.8,15.1c0.6,4.6,1.1,8.9,1.5,12.5l0.1,0.9l3.3-0.3l-0.1-0.9
			c-0.2-1.7-0.4-3.9-0.7-6.3l0-0.2c1,0.8,2.1,1.6,3.2,2.4c1.8,1.4,3.7,2.8,5,3.9l0.7,0.6l2.1-2.6l-0.7-0.5c-1.4-1.2-3.3-2.6-5.2-4
			c-0.9-0.7-1.9-1.4-2.7-2c4.9-1.2,8.9-4.4,10.5-8.5c1.1-2.9,0.8-5.8-1-8C290.8,270.6,284.7,269.6,276.5,271.2z M291.3,281.1
			c-1.4,2.9-5.1,6.1-10.2,6.6c0,0-0.1,0-0.1,0c-0.4-3-1.2-9.4-1.6-13.3c8-1.2,10.8,0.7,11.8,2C292.4,278,291.8,280,291.3,281.1z"/>
		<path class="st129" d="M322.2,276.3c-1.1-3.6-3.2-6.7-5.8-8.6c-3-2.2-6.5-2.8-10.1-1.7c-3.6,1.1-6.4,3.9-7.7,7.8
			c-1.2,3.5-1.2,7.6,0,11.4c1.1,3.5,3.1,6.3,5.6,8.1c2.9,2,6.4,2.4,10.2,1.3c3.8-1.2,6.6-3.8,7.9-7.5
			C323.4,283.8,323.4,280,322.2,276.3z M313.6,291.4c-4.2,1.3-9.6,0.1-11.9-7.3c-0.9-3-1-6.3-0.1-9.1c0.6-2.1,2.1-4.7,5.4-5.7
			c2.7-0.8,5.3-0.4,7.6,1.2c2,1.5,3.6,3.9,4.5,6.8C320.8,282.9,319.5,289.6,313.6,291.4z"/>
		<path class="st129" d="M204.1,319.1c-0.7-2.7-2-5-4.1-6.9c-1.1-1-2.5-1.7-4-2c-3-0.6-5.8,0.2-8.3,1.8c-2.6,1.6-4.5,3.8-6,6.4
			c-2.2,3.9-3.1,8.1-3.5,12.5c-0.4,5.5,0.2,10.9,1.5,16.2c0.9,3.7,2.1,7.4,4,10.7c1.1,2,2.5,3.8,4.5,5.1c2.3,1.4,4.7,1.7,7.1,0.3
			c1.2-0.7,2.2-1.8,3-2.9c2-2.8,2.9-6.1,3.7-9.4c0.1-0.3,0.1-0.6,0-0.9c-0.1-1.3-1-2.3-2.2-2.3c-1.1,0-1.9,0.8-2.1,2
			c-0.3,1.9-0.9,3.8-1.6,5.6c-0.3,0.7-0.6,1.4-1.2,2c-0.6-0.3-0.8-0.8-1.1-1.3c-0.7-1.2-1.4-2.5-1.9-3.8c-2.2-5.3-3-10.9-3-16.6
			c0-3.5,0.6-7,1.6-10.3c0.9-3.2,2.6-5.9,5.4-7.7c2.4-1.6,2.3-1.1,3.3,0.8c0.4,0.7,0.5,1.5,0.8,2.2c0.4,1.2,1.5,1.8,2.5,1.5
			c1.1-0.3,1.7-1.3,1.6-2.6C204.1,319.4,204.1,319.2,204.1,319.1z"/>
		<path class="st129" d="M230.4,347.9c-0.5-3.9-1.2-7.9-1.9-11.8c-0.8-4.6-1.6-9.2-2.9-13.7c-0.9-3-2.2-5.9-4-8.6
			c-0.6-0.9-1.4-1.8-2.3-2.5c-2.6-1.9-6-1.2-7.4,1.5c-0.3,0.6-0.6,1.3-0.8,1.9c-0.8,2.6-1.3,5.2-1.8,7.8c-0.9,5.4-1.4,10.8-1.8,16.2
			c-0.4,4.6-0.9,9.3-0.7,13.9c0,2.7,0,5.4,0,8.1c0,0.6,0,1.2,0.2,1.8c0.3,1.2,1.7,1.9,2.9,1.3c0.9-0.4,1.2-1.1,1.2-1.9
			c0-1.6,0-3.1,0-4.7c0-1.2,0-1.2,1.4-1.3c3-0.3,6.1-0.6,9.1-0.9c0.8-0.1,1,0.1,1.1,0.7c0.1,0.4,0.1,0.9,0.2,1.3
			c0.2,1.5,0.3,3,0.6,4.5c0.3,1.6,1.7,2.5,3.5,2.1c0.8-0.2,1.7-0.4,2.5-0.7c1.5-0.5,2.4-1.5,2.5-3c0-0.4,0-0.8,0-1.2
			C231.4,355.2,230.9,351.5,230.4,347.9z M220.8,351.5c-3.2,0.3-6.5,0.6-9.8,1c-0.1-2.5-0.1-4.9,0.1-7.3c0.2-3.1,0.6-6.2,0.8-9.3
			c0.5-6.3,1.2-12.6,2.9-18.8c0.2-0.6,0.2-1.3,0.7-1.9c0.6,0.8,0.8,1.7,1,2.6c1.1,4.3,1.7,8.6,2.4,13c0.8,4.9,1.5,9.9,2.2,14.9
			c0.2,1.6,0.5,3.2,0.7,4.9C221.9,351.3,221.8,351.4,220.8,351.5z"/>
		<path class="st129" d="M259.4,310.5c-0.6-0.2-1.1-0.2-1.7-0.2c-5.9-0.1-11.9,0.2-17.8,0.4c-1.2,0-2.4,0.1-3.6,0.3
			c-1.2,0.1-2,1.1-2,2.2c0,1.1,0.9,2,2.1,2c0.5,0,1.1,0,1.6,0c1.4,0,2.8-0.2,4.3,0c-0.3,1.7-0.6,3.2-0.8,4.7c-0.9,6-1.3,12-1.6,18
			c-0.3,6.1-0.1,12.2,0.7,18.2c0.2,1.7,0.5,3.4,1,5.1c0.7,2.3,2.1,3.3,4.4,3c0.8-0.1,1.6-0.2,2.5-0.3c2.3-0.5,3.3-1.5,3.5-4
			c0.3-2.6,0.3-5.3,0.2-7.9c-0.2-2.6-0.3-5.3-0.4-7.9c-0.1-4.6-0.3-9.1-0.1-13.7c0.2-4.9,0.7-9.8,1.3-14.7c0.1-0.7,0.3-1,1-1
			c1.3,0,2.5-0.2,3.8,0c0.5,0.1,1,0.1,1.4,0c1-0.3,1.6-1,1.7-2C260.9,311.7,260.4,310.9,259.4,310.5z"/>
	</g>
	<g>
		<path class="st100" d="M329.6,123.5c1.9-24.4-7.6-53.8-22.1-58.4c-12.4-4-13.5,45.3-30,40.4C254,98.5,235.6,94.7,216,94.2
			c-22.1,0.5-38,4.3-61.4,11.2c-16.6,4.9-17.6-44.4-30-40.4c-14.6,4.7-24.1,34.1-22.1,58.4C104,143,69,157.1,73.6,168.2
			c1.4,0,24.9,11.5,27.1,12.8c-2.8,1.7-13.8,5.4-19.7,10.5c3.2,6.7,7,13,11.8,18.5c24.4-4.9,26-5,32.4-7.4c-3.4,9.5-8,21.3-10,26.3
			c-3.4,8.4,40.3,28.5,67,32.8c38.1,4.5,27.7,8.8,28.1-26.2c0-4.2,0.8-9.1-2.3-12.3c-1.5-1.5-2.8-3.2-4-4.9c-2.4-3.5-2.6-7.3-0.3-11
			c2.7-4.3,6.6-6.6,11.6-6.8c0.3,0,0.6,0,0.9,0c0.3,0,0.6,0,0.9,0c5,0.2,8.9,2.5,11.6,6.8c2.3,3.7,2.1,7.4-0.3,11
			c-1.2,1.7-2.5,3.4-4,4.9c-3.1,3.2-2.4,8.1-2.3,12.3c0.4,35-10,30.7,28.1,26.2c26-4.8,70.4-24.3,67-32.8c-2-4.9-6.6-16.8-10-26.3
			c6.5,2.4,8,2.4,32.4,7.4c4.8-5.5,8.6-11.8,11.8-18.5c-5.9-5.1-16.9-8.8-19.7-10.5c2.1-1.3,25.6-12.8,27.1-12.8
			C363,157.1,328,143,329.6,123.5z M162.1,235.5c-2,0-3.7-1.8-3.7-4s1.6-4,3.7-4c2,0,3.7,1.8,3.7,4S164.1,235.5,162.1,235.5z
			 M172,221.7c0-2.2,1.6-4,3.7-4c2,0,3.7,1.8,3.7,4c0,2.2-1.6,4-3.7,4C173.6,225.7,172,223.9,172,221.7z M178.1,241.7
			c-2,0-3.7-1.8-3.7-4c0-2.2,1.6-4,3.7-4c2,0,3.7,1.8,3.7,4C181.7,239.9,180.1,241.7,178.1,241.7z M154.5,189.5
			c-13.9-6-22.7-16.4-19.7-23.3c3-6.9,17.3-10.5,31.1-4.5c13.9,6,19,26.1,19,26.1S168.3,195.5,154.5,189.5z M252.7,241.7
			c-2,0-3.7-1.8-3.7-4c0-2.2,1.6-4,3.7-4c2,0,3.7,1.8,3.7,4C256.3,239.9,254.7,241.7,252.7,241.7z M255.1,225.7c-2,0-3.7-1.8-3.7-4
			c0-2.2,1.6-4,3.7-4c2,0,3.7,1.8,3.7,4C258.8,223.9,257.1,225.7,255.1,225.7z M268.7,235.5c-2,0-3.7-1.8-3.7-4s1.6-4,3.7-4
			c2,0,3.7,1.8,3.7,4S270.7,235.5,268.7,235.5z M277,189.5c-13.9,6-30.5-1.8-30.5-1.8s5.2-20.1,19-26.1c13.9-6,28.2-2.4,31.1,4.5
			C299.7,173.1,290.9,183.6,277,189.5z"/>
		<path class="st100" d="M326.1,316.6c-20,4.3-40.2,8-60.5,11c-3.6,0.5-2.1,6,1.5,5.4c20.3-3,40.5-6.7,60.5-11
			C331.2,321.3,329.7,315.8,326.1,316.6z"/>
		<path class="st100" d="M320.6,340.8c-16.2-1.7-32.4-3.4-48.5-5.1c-3.6-0.4-3.6,5.3,0,5.7c16.2,1.7,32.4,3.4,48.5,5.1
			C324.2,346.9,324.2,341.2,320.6,340.8z"/>
		<path class="st100" d="M317.4,361.6c-13.5-5-26.8-10.3-40.1-16c-3.3-1.4-6.2,3.5-2.9,4.9c13.7,5.8,27.5,11.4,41.4,16.5
			C319.3,368.3,320.8,362.8,317.4,361.6z"/>
		<path class="st100" d="M168.8,327.6c-20.3-3-40.5-6.7-60.5-11c-3.6-0.8-5.1,4.7-1.5,5.4c20,4.3,40.2,8,60.5,11
			C170.9,333.6,172.4,328.2,168.8,327.6z"/>
		<path class="st100" d="M162.4,335.7c-16.2,1.7-32.4,3.4-48.5,5.1c-3.6,0.4-3.6,6,0,5.7c16.2-1.7,32.4-3.4,48.5-5.1
			C166,341,166,335.3,162.4,335.7z"/>
		<path class="st100" d="M157.1,345.6c-13.2,5.6-26.6,11-40.1,16c-3.4,1.3-1.9,6.7,1.5,5.4c13.9-5.2,27.7-10.7,41.4-16.5
			C163.3,349,160.4,344.2,157.1,345.6z"/>
	</g>
</g>
</svg>
